<?xml version="1.0" encoding="utf-8"?>
<!-- Generator: Adobe Illustrator 24.1.0, SVG Export Plug-In . SVG Version: 6.00 Build 0)  -->
<svg version="1.1" id="Layer_1" xmlns="http://www.w3.org/2000/svg" xmlns:xlink="http://www.w3.org/1999/xlink" x="0px" y="0px"
	 viewBox="0 0 100 100" style="enable-background:new 0 0 100 100;" xml:space="preserve">
<style type="text/css">
	.st0{fill:#199FD9;}
</style>
<g>
	<g>
		<path class="st0" d="M79.5,44.8L72.3,43c-0.4-1.3-0.9-2.5-1.5-3.7l3.7-6.1c0.4-0.7,0.3-1.6-0.3-2.2L69,25.8
			c-0.6-0.6-1.5-0.7-2.2-0.3l-6.1,3.7c-1.2-0.6-2.4-1.1-3.7-1.5l-1.7-7.2c-0.2-0.8-0.9-1.4-1.8-1.4h-7.2c-0.8,0-1.6,0.6-1.8,1.4
			l-1.7,7.2c-1.3,0.4-2.5,0.9-3.7,1.5L33,25.5c-0.7-0.4-1.6-0.3-2.2,0.3L25.6,31c-0.6,0.6-0.7,1.5-0.3,2.2l3.7,6.1
			c-0.6,1.2-1.1,2.4-1.5,3.7l-7,1.8c-0.8,0.2-1.4,0.9-1.4,1.7v7.2c0,0.8,0.6,1.6,1.4,1.7l7,1.8c0.4,1.3,0.9,2.5,1.5,3.7L25.3,67
			c-0.4,0.7-0.3,1.6,0.3,2.2l5.1,5.1c0.6,0.6,1.5,0.7,2.2,0.3l6.1-3.7c1.2,0.6,2.4,1.1,3.7,1.5l1.7,7c0.2,0.8,0.9,1.4,1.8,1.4h7.2
			c0.8,0,1.6-0.6,1.8-1.4l1.7-7c1.3-0.4,2.5-0.9,3.7-1.5l6.1,3.7c0.7,0.4,1.6,0.3,2.2-0.3l5.1-5.1c0.6-0.6,0.7-1.5,0.3-2.2l-3.7-6.1
			c0.6-1.2,1.1-2.4,1.5-3.7l7.2-1.8c0.8-0.2,1.4-0.9,1.4-1.7v-7.2C80.9,45.7,80.3,44.9,79.5,44.8z M49.9,59.2c-5,0-9-4.1-9-9
			s4.1-9,9-9s9,4.1,9,9S54.9,59.2,49.9,59.2z"/>
	</g>
</g>
</svg>
