<?xml version="1.0" encoding="utf-8"?>
<!-- Generator: Adobe Illustrator 24.1.0, SVG Export Plug-In . SVG Version: 6.00 Build 0)  -->
<svg version="1.1" id="Layer_1" xmlns="http://www.w3.org/2000/svg" xmlns:xlink="http://www.w3.org/1999/xlink" x="0px" y="0px"
	 viewBox="0 0 100 100" style="enable-background:new 0 0 100 100;" xml:space="preserve">
<style type="text/css">
	.st0{fill:#199FD9;}
</style>
<g>
	<g>
		<polygon class="st0" points="59.4,50.3 78.9,62.6 78.9,37.5 		"/>
	</g>
</g>
<g>
	<g>
		<polygon class="st0" points="21.1,37.5 21.1,62.6 40.6,50.3 		"/>
	</g>
</g>
<g>
	<g>
		<path class="st0" d="M75.2,30.2H24.8c-1.8,0-3.2,1.3-3.5,3.1L50,52.2l28.7-18.9C78.5,31.5,77,30.2,75.2,30.2z"/>
	</g>
</g>
<g>
	<g>
		<path class="st0" d="M56.1,52.5L51,55.8c-0.3,0.2-0.6,0.3-1,0.3c-0.3,0-0.7-0.1-1-0.3l-5.1-3.4L21.3,66.8c0.3,1.7,1.7,3,3.5,3
			h50.5c1.8,0,3.2-1.3,3.5-3L56.1,52.5z"/>
	</g>
</g>
</svg>
