<?xml version="1.0" encoding="utf-8"?>
<!-- Generator: Adobe Illustrator 24.1.0, SVG Export Plug-In . SVG Version: 6.00 Build 0)  -->
<svg version="1.1" id="Layer_1" xmlns="http://www.w3.org/2000/svg" xmlns:xlink="http://www.w3.org/1999/xlink" x="0px" y="0px"
	 viewBox="0 0 100 100" style="enable-background:new 0 0 100 100;" xml:space="preserve">
<style type="text/css">
	.st0{fill:#FFFFFF;}
</style>
<g>
	<path class="st0" d="M27,37.3l47-12.1l-0.4-1.8c-0.5-2.2-2.9-3.5-5.1-3l-38.9,10c-2.2,0.5-3.5,2.9-3,5.1L27,37.3z"/>
	<path class="st0" d="M65.6,41.7c4.5,0,8.1,3.7,8.1,8.1v4.5l3.3-0.9c2.2-0.5,3.5-2.9,3-5.1l-3.8-15l-32.8,8.4H65.6z"/>
	<path class="st0" d="M69.7,75.6V49.9c0-2.4-1.8-4.2-4.2-4.2H25.3c-2.4,0-4.2,1.8-4.2,4.2v25.7c0,2.4,1.8,4.2,4.2,4.2h40.2
		C67.8,79.8,69.7,78,69.7,75.6z M27.7,50.9H50c1.1,0,2,0.9,2,2s-0.9,2-2,2H27.7c-1.1,0-2-0.9-2-2C25.7,51.8,26.6,50.9,27.7,50.9z"/>
</g>
</svg>
