<?xml version="1.0" encoding="utf-8"?>
<!-- Generator: Adobe Illustrator 24.1.0, SVG Export Plug-In . SVG Version: 6.00 Build 0)  -->
<svg version="1.1" id="Layer_1" xmlns="http://www.w3.org/2000/svg" xmlns:xlink="http://www.w3.org/1999/xlink" x="0px" y="0px"
	 viewBox="0 0 100 100" style="enable-background:new 0 0 100 100;" xml:space="preserve">
<style type="text/css">
	.st0{fill:#FFFFFF;}
</style>
<g>
	<path class="st0" d="M51.5,30.8c1.2,1.4,2.1,3.1,2.6,5.1c0.5,1.9,0.6,4,0.3,6.2c-0.1,0.8-0.2,1.8-0.4,2.8c1.6,1.5,3.7,2.5,6.4,2.5
		c7.5,0,10.2-7.5,10.9-13.7c0.9-7.6-2.7-13.4-10.9-13.4c-6.4,0-10.1,3.5-10.9,8.7C50.2,29.5,50.9,30.1,51.5,30.8z"/>
	<path class="st0" d="M80.7,65.3c-0.1-2.4-0.4-4.8-0.8-7.2c-0.5-2.9-1.2-7.1-3.7-8.9c-1.4-1.1-3.3-1.4-5-2.1c-0.8-0.3-1.5-0.6-2.2-1
		c-2.3,2.5-5.3,3.8-8.7,3.8c-2.7,0-5.1-0.8-7.1-2.3c-0.5,1.4-1.1,2.9-1.9,4.2c0.7,0.4,1.5,0.8,2.5,1.2c0.4,0.2,0.9,0.3,1.4,0.5
		c1.3,0.4,2.8,0.9,4.2,1.9c3.2,2.4,4,6.9,4.6,10.2L64,66c0.3,1.7,0.5,3.3,0.7,5c2.6-0.3,5.1-0.7,7.6-1.2c2-0.4,4-0.9,6-1.7
		C79.9,67.5,80.8,67.2,80.7,65.3z"/>
	<path class="st0" d="M62.8,66.2l-0.1-0.4c-0.5-3.1-1.3-7.3-4.1-9.4c-1.2-0.9-2.5-1.3-3.8-1.7c-0.5-0.2-1-0.3-1.5-0.5
		c-0.7-0.3-1.3-0.5-1.8-0.8c-2.4,3.2-5.7,4.8-9.6,4.8c-3.9,0-7.2-1.7-9.6-4.8c-0.6,0.3-1.2,0.5-1.8,0.8c-0.5,0.2-0.9,0.3-1.5,0.5
		c-1.3,0.4-2.6,0.9-3.8,1.7c-2.8,2.1-3.6,6.3-4.1,9.4l-0.1,0.4c-0.5,2.6-0.7,5-0.8,7.4c-0.1,2.7,1.6,3.3,3.1,3.9l0.2,0.1
		c1.8,0.6,3.8,1.2,6.2,1.7c4.8,1,8.7,1.5,12.2,1.5h0h0c3.6,0,7.4-0.5,12.2-1.5c2.3-0.5,4.4-1.1,6.2-1.7l0.2-0.1
		c1.5-0.5,3.2-1.1,3.1-3.9C63.5,71.2,63.2,68.7,62.8,66.2z"/>
	<path class="st0" d="M42,56.2c7.5,0,10.2-7.5,10.9-13.7c0.9-7.6-2.7-13.4-10.9-13.4c-8.2,0-11.8,5.7-10.9,13.4
		C31.8,48.7,34.5,56.2,42,56.2z"/>
</g>
</svg>
