<?xml version="1.0" encoding="utf-8"?>
<!-- Generator: Adobe Illustrator 24.1.0, SVG Export Plug-In . SVG Version: 6.00 Build 0)  -->
<svg version="1.1" id="Layer_1" xmlns="http://www.w3.org/2000/svg" xmlns:xlink="http://www.w3.org/1999/xlink" x="0px" y="0px"
	 viewBox="0 0 100 100" style="enable-background:new 0 0 100 100;" xml:space="preserve">
<style type="text/css">
	.st0{fill:#FFFFFF;}
</style>
<path class="st0" d="M77.3,32H44.1c-2.6,0-4.8-2.1-4.8-4.8v-1.4c0-2.6,2.1-4.8,4.8-4.8h33.2c2.6,0,4.8,2.1,4.8,4.8v1.4
	C82.1,29.9,79.9,32,77.3,32z"/>
<path class="st0" d="M77.3,47.3H44.1c-2.6,0-4.8-2.1-4.8-4.8v-1.4c0-2.6,2.1-4.8,4.8-4.8h33.2c2.6,0,4.8,2.1,4.8,4.8v1.4
	C82.1,45.2,79.9,47.3,77.3,47.3z"/>
<path class="st0" d="M55.9,62.6H22.7c-2.6,0-4.8-2.1-4.8-4.8v-1.4c0-2.6,2.1-4.8,4.8-4.8h33.2c2.6,0,4.8,2.1,4.8,4.8v1.4
	C60.7,60.5,58.5,62.6,55.9,62.6z"/>
<path class="st0" d="M55.9,77.9H22.7c-2.6,0-4.8-2.1-4.8-4.8v-1.4c0-2.6,2.1-4.8,4.8-4.8h33.2c2.6,0,4.8,2.1,4.8,4.8v1.4
	C60.7,75.8,58.5,77.9,55.9,77.9z"/>
</svg>
