<?xml version="1.0" encoding="utf-8"?>
<!-- Generator: Adobe Illustrator 24.1.0, SVG Export Plug-In . SVG Version: 6.00 Build 0)  -->
<svg version="1.1" id="Layer_1" xmlns="http://www.w3.org/2000/svg" xmlns:xlink="http://www.w3.org/1999/xlink" x="0px" y="0px"
	 viewBox="0 0 100 100" style="enable-background:new 0 0 100 100;" xml:space="preserve">
<style type="text/css">
	.st0{fill:#FFFFFF;}
</style>
<path class="st0" d="M79.1,46.1C79.1,46.1,79.1,46.1,79.1,46.1L54.4,21.5c-1.1-1.1-2.4-1.6-3.9-1.6s-2.9,0.6-3.9,1.6L21.9,46.1
	c0,0,0,0,0,0c-2.2,2.2-2.2,5.7,0,7.9c1,1,2.3,1.6,3.7,1.6c0.1,0,0.1,0,0.2,0h1v18.1c0,3.6,2.9,6.5,6.5,6.5h9.6c1,0,1.8-0.8,1.8-1.8
	V64.3c0-1.6,1.3-3,3-3h5.7c1.6,0,3,1.3,3,3v14.2c0,1,0.8,1.8,1.8,1.8h9.6c3.6,0,6.5-2.9,6.5-6.5V55.6h0.9c1.5,0,2.9-0.6,3.9-1.6
	C81.2,51.8,81.2,48.3,79.1,46.1z"/>
</svg>
