<?xml version="1.0" encoding="utf-8"?>
<!-- Generator: Adobe Illustrator 24.1.0, SVG Export Plug-In . SVG Version: 6.00 Build 0)  -->
<svg version="1.1" id="Layer_1" xmlns="http://www.w3.org/2000/svg" xmlns:xlink="http://www.w3.org/1999/xlink" x="0px" y="0px"
	 viewBox="0 0 100 100" style="enable-background:new 0 0 100 100;" xml:space="preserve">
<style type="text/css">
	.st0{fill:#FFFFFF;}
</style>
<path class="st0" d="M82.8,34H55.6l8.6-8.6c0.9-0.9,0.9-2.4,0-3.3l-1.7-1.7c-0.9-0.9-2.4-0.9-3.3,0L45.6,34.1c0,0-0.1,0.1-0.1,0.1
	l-1.7,1.7c-0.5,0.5-0.7,1-0.7,1.6c0,0.6,0.2,1.2,0.7,1.6l1.7,1.7c0,0,0.1,0.1,0.1,0.1l13.6,13.6c0.9,0.9,2.4,0.9,3.3,0l1.7-1.7
	c0.9-0.9,0.9-2.4,0-3.3L55.6,41h27.2c1.3,0,2.3-1,2.3-2.3v-2.4C85.1,35,84.1,34,82.8,34z"/>
<path class="st0" d="M17.2,66h27.2l-8.6,8.6c-0.9,0.9-0.9,2.4,0,3.3l1.7,1.7c0.9,0.9,2.4,0.9,3.3,0l13.6-13.6c0,0,0.1-0.1,0.1-0.1
	l1.7-1.7c0.5-0.5,0.7-1,0.7-1.6c0-0.6-0.2-1.2-0.7-1.6l-1.7-1.7c0,0-0.1-0.1-0.1-0.1L40.7,45.5c-0.9-0.9-2.4-0.9-3.3,0l-1.7,1.7
	c-0.9,0.9-0.9,2.4,0,3.3l8.6,8.6H17.2c-1.3,0-2.3,1-2.3,2.3v2.4C14.9,65,15.9,66,17.2,66z"/>
</svg>
