<?xml version="1.0" encoding="utf-8"?>
<!-- Generator: Adobe Illustrator 24.1.0, SVG Export Plug-In . SVG Version: 6.00 Build 0)  -->
<svg version="1.1" id="Layer_1" xmlns="http://www.w3.org/2000/svg" xmlns:xlink="http://www.w3.org/1999/xlink" x="0px" y="0px"
	 viewBox="0 0 100 100" style="enable-background:new 0 0 100 100;" xml:space="preserve">
<style type="text/css">
	.st0{fill:#FFFFFF;}
</style>
<g>
	<path class="st0" d="M60,46.9c-2.7-1.5-5.5-2.6-8.4-3.8c-1.6-0.7-3.2-1.5-4.6-2.6c-2.7-2.2-2.2-5.7,1-7.1c0.9-0.4,1.9-0.5,2.8-0.6
		c3.7-0.2,7.2,0.5,10.6,2.1c1.7,0.8,2.2,0.6,2.8-1.2c0.6-1.8,1.1-3.7,1.6-5.6c0.4-1.2-0.1-2.1-1.3-2.6c-2.1-0.9-4.4-1.6-6.7-2
		c-3-0.5-3-0.5-3-3.5c0-4.3,0-4.3-4.3-4.3c-0.6,0-1.2,0-1.9,0c-2,0.1-2.3,0.4-2.4,2.4c0,0.9,0,1.8,0,2.7c0,2.7,0,2.6-2.6,3.6
		c-6.2,2.3-10.1,6.5-10.5,13.3c-0.4,6,2.8,10.1,7.7,13c3,1.8,6.4,2.9,9.6,4.3c1.3,0.6,2.5,1.2,3.5,2.1c3.1,2.6,2.5,6.8-1.1,8.4
		c-2,0.9-4,1.1-6.2,0.8c-3.3-0.4-6.4-1.3-9.4-2.8c-1.7-0.9-2.2-0.7-2.8,1.2c-0.5,1.6-1,3.3-1.4,4.9c-0.6,2.2-0.4,2.7,1.7,3.8
		c2.7,1.3,5.6,2,8.5,2.4c2.3,0.4,2.4,0.5,2.4,2.8c0,1.1,0,2.2,0,3.2c0,1.4,0.7,2.1,2.1,2.2c1.6,0,3.2,0,4.8,0c1.3,0,2-0.7,2-2
		c0-1.5,0.1-3,0-4.4c-0.1-1.5,0.6-2.3,2-2.7c3.3-0.9,6.1-2.7,8.3-5.3C70.8,62.4,68.5,51.6,60,46.9z"/>
</g>
</svg>
