<?xml version="1.0" encoding="utf-8"?>
<!-- Generator: Adobe Illustrator 24.1.0, SVG Export Plug-In . SVG Version: 6.00 Build 0)  -->
<svg version="1.1" id="Layer_1" xmlns="http://www.w3.org/2000/svg" xmlns:xlink="http://www.w3.org/1999/xlink" x="0px" y="0px"
	 viewBox="0 0 129.2 125.9" style="enable-background:new 0 0 129.2 125.9;" xml:space="preserve">
<style type="text/css">
	.st0{fill-rule:evenodd;clip-rule:evenodd;fill:#516A7C;}
	.st1{fill:#516A7C;}
</style>
<g>
	<path class="st0" d="M64.6,0.2C29.1,0.2,0.3,29,0.3,64.6c0,28.4,18.4,52.5,44,61c3.2,0.6,4.4-1.4,4.4-3.1c0-1.5-0.1-6.6-0.1-12
		c-17.9,3.9-21.7-7.6-21.7-7.6c-2.9-7.4-7.1-9.4-7.1-9.4c-5.8-4,0.4-3.9,0.4-3.9c6.5,0.5,9.9,6.6,9.9,6.6c5.7,9.8,15,7,18.7,5.3
		c0.6-4.2,2.2-7,4.1-8.6c-14.3-1.6-29.3-7.1-29.3-31.8c0-7,2.5-12.8,6.6-17.3c-0.7-1.6-2.9-8.2,0.6-17c0,0,5.4-1.7,17.7,6.6
		c5.1-1.4,10.6-2.1,16.1-2.2c5.5,0,11,0.7,16.1,2.2c12.3-8.3,17.7-6.6,17.7-6.6c3.5,8.9,1.3,15.4,0.6,17c4.1,4.5,6.6,10.2,6.6,17.3
		c0,24.7-15,30.1-29.4,31.7c2.3,2,4.4,5.9,4.4,11.9c0,8.6-0.1,15.5-0.1,17.7c0,1.7,1.2,3.7,4.4,3.1c25.5-8.5,44-32.6,44-61
		C128.9,29,100.1,0.2,64.6,0.2z"/>
	<path class="st1" d="M24.6,92.6c-0.1,0.3-0.6,0.4-1.1,0.2c-0.5-0.2-0.7-0.6-0.6-1c0.1-0.3,0.6-0.4,1.1-0.2
		C24.5,91.8,24.8,92.3,24.6,92.6L24.6,92.6z M23.8,92"/>
	<path class="st1" d="M27.2,95.5c-0.3,0.3-0.9,0.2-1.3-0.3c-0.4-0.4-0.5-1-0.2-1.3c0.3-0.3,0.9-0.2,1.3,0.3
		C27.5,94.6,27.5,95.2,27.2,95.5L27.2,95.5z M26.6,94.8"/>
	<path class="st1" d="M29.8,99.2c-0.4,0.3-1,0-1.4-0.6c-0.4-0.6-0.4-1.3,0-1.5c0.4-0.3,1,0,1.4,0.5C30.2,98.2,30.2,98.9,29.8,99.2
		L29.8,99.2z M29.8,99.2"/>
	<path class="st1" d="M33.2,102.8c-0.4,0.4-1.1,0.3-1.7-0.2c-0.6-0.5-0.7-1.3-0.4-1.6c0.4-0.4,1.1-0.3,1.7,0.2
		C33.4,101.7,33.6,102.4,33.2,102.8L33.2,102.8z M33.2,102.8"/>
	<path class="st1" d="M38,104.9c-0.2,0.5-0.9,0.7-1.6,0.5c-0.7-0.2-1.2-0.8-1.1-1.3c0.2-0.5,0.9-0.7,1.6-0.5
		C37.7,103.8,38.2,104.4,38,104.9L38,104.9z M38,104.9"/>
	<path class="st1" d="M43.3,105.3c0,0.5-0.6,1-1.4,1c-0.8,0-1.4-0.4-1.4-0.9c0-0.5,0.6-1,1.4-1C42.7,104.3,43.3,104.7,43.3,105.3
		L43.3,105.3z M43.3,105.3"/>
	<path class="st1" d="M48.2,104.4c0.1,0.5-0.4,1-1.2,1.2c-0.7,0.1-1.4-0.2-1.5-0.7c-0.1-0.5,0.4-1.1,1.2-1.2
		C47.4,103.6,48.1,103.9,48.2,104.4L48.2,104.4z M48.2,104.4"/>
</g>
</svg>
